<svg width="20" height="13" viewBox="0 0 20 13" fill="none" xmlns="http://www.w3.org/2000/svg">
<path d="M7.74546 9.69067L2.83617 4.47562L2.83616 4.47561C2.42289 4.03687 1.73205 4.01613 1.2933 4.42905L1.29328 4.42906C0.854568 4.84232 0.833434 5.53317 1.24674 5.97194L6.91124 11.9888L7.74546 9.69067ZM7.74546 9.69067L17.292 0.535931C17.292 0.535926 17.292 0.535921 17.292 0.535916C17.7264 0.119016 18.418 0.13281 18.8349 0.568291C19.2522 1.0034 19.2376 1.69426 18.8025 2.11153L8.46107 12.0288L8.42646 11.9927L8.46107 12.0288C8.25768 12.2238 7.98665 12.3322 7.70581 12.3322C7.69728 12.3322 7.6873 12.3322 7.67716 12.3318L7.67908 12.2819M7.74546 9.69067L6.94767 11.9545C7.1379 12.1569 7.40137 12.2746 7.67908 12.2819M7.67908 12.2819L7.67777 12.3319C7.38679 12.3242 7.11066 12.2009 6.91126 11.9888L7.67908 12.2819Z" fill="black" stroke="black" stroke-width="0.1"/>
</svg>
