<svg width="54" height="56" viewBox="0 0 54 56" fill="none" xmlns="http://www.w3.org/2000/svg">
<path d="M25.2121 1.84818C25.9499 0.376701 28.0501 0.376698 28.7879 1.84818L32.0065 8.26776C32.5061 9.26425 33.724 9.65997 34.7139 9.14745L41.0911 5.84575C42.5529 5.08894 44.252 6.32342 43.984 7.94752L42.8145 15.0329C42.633 16.1328 43.3857 17.1687 44.4878 17.336L51.5878 18.4133C53.2152 18.6602 53.8642 20.6577 52.6928 21.814L47.582 26.8589C46.7886 27.642 46.7886 28.9225 47.582 29.7056L52.6928 34.7504C53.8642 35.9068 53.2152 37.9042 51.5878 38.1512L44.4878 39.2285C43.3857 39.3957 42.633 40.4317 42.8145 41.5315L43.984 48.6169C44.252 50.241 42.5529 51.4755 41.0911 50.7187L34.7139 47.417C33.724 46.9045 32.5061 47.3002 32.0065 48.2967L28.7879 54.7163C28.0501 56.1878 25.9499 56.1878 25.2121 54.7163L21.9935 48.2967C21.4939 47.3002 20.276 46.9045 19.2861 47.417L12.9089 50.7187C11.4471 51.4755 9.74798 50.241 10.016 48.6169L11.1855 41.5315C11.367 40.4317 10.6143 39.3957 9.5122 39.2285L2.41221 38.1512C0.78477 37.9042 0.135763 35.9068 1.30724 34.7504L6.41803 29.7056C7.21136 28.9225 7.21136 27.642 6.41803 26.8589L1.30724 21.814C0.135765 20.6577 0.784767 18.6602 2.41221 18.4133L9.5122 17.336C10.6143 17.1687 11.367 16.1328 11.1855 15.0329L10.016 7.94752C9.74798 6.32342 11.4471 5.08894 12.9089 5.84575L19.2861 9.14745C20.276 9.65996 21.4939 9.26426 21.9935 8.26776L25.2121 1.84818Z" fill="#D7FD44"/>
</svg>
