<svg width="54" height="52" viewBox="0 0 54 52" fill="none" xmlns="http://www.w3.org/2000/svg">
<path d="M52.0745 38.9324L52.0474 38.8637C51.9786 38.5242 51.7016 37.5076 50.56 33.4456C50.1538 31.9978 49.7413 30.5271 49.4351 29.423C48.8539 27.3149 46.3958 23.678 44.2252 20.4698C43.2378 19.0095 42.3046 17.6263 41.6817 16.5827H41.6797C42.7087 12.908 41.9692 8.96261 39.6799 5.91065C37.3905 2.85676 33.8095 1.04238 29.9933 1.00073C26.1771 0.95907 22.5589 2.69433 20.2028 5.69611C17.8468 8.69789 17.0219 12.6266 17.9697 16.3223C18.9175 20.0198 21.5298 23.0656 25.04 24.5652C28.55 26.0629 32.5582 25.8421 35.8826 23.9694L36.2347 24.7318L35.7493 33.5662C32.9413 29.7061 28.8209 28.8499 23.4652 31.0227C19.9739 28.3896 15.5641 27.2814 11.2413 27.9563C9.94354 28.1688 8.62703 28.2709 7.31047 28.2584C5.6252 28.2188 3.99832 28.8708 2.80676 30.0644C1.62773 31.2289 0.975683 32.8246 1.00069 34.4806L1.06319 39.5801C1.09652 43.1652 2.80259 46.5314 5.67729 48.6752C5.68354 48.6794 5.68771 48.6856 5.69396 48.6898C5.70021 48.694 5.70437 48.694 5.70854 48.6981C7.6917 50.1897 10.1081 50.9958 12.5889 50.9917L15.8428 51H15.8407C16.1303 51 16.3969 50.8521 16.549 50.6063L18.2467 47.8836C18.605 47.3087 19.3133 47.0608 19.9528 47.2858C32.4971 51.6166 41.3112 48.8293 47.1416 46.9837C47.4853 46.8775 47.8206 46.7712 48.1456 46.6671C50.1912 46.0296 51.5619 44.9985 52.2223 43.5986C53.1638 41.6113 52.3432 39.5949 52.0745 38.9324ZM19.2862 13.2934C19.2862 10.4853 20.4028 7.79207 22.388 5.80453C24.3753 3.81929 27.0688 2.70484 29.8769 2.70484C32.687 2.70484 35.3803 3.82142 37.3657 5.80869C39.351 7.79393 40.4675 10.4874 40.4654 13.2975C40.4654 16.1056 39.351 18.7989 37.3637 20.7843C35.3784 22.7695 32.685 23.886 29.8769 23.886C27.0668 23.884 24.3756 22.7653 22.3902 20.7801C20.405 18.7928 19.2883 16.1014 19.2862 13.2934ZM50.7167 42.8905C50.2626 43.8508 49.2314 44.5861 47.6504 45.0778C47.3233 45.1798 46.9858 45.2861 46.638 45.3986C41.0156 47.1775 32.5183 49.8627 20.495 45.7131V45.711C19.1201 45.2298 17.5973 45.7673 16.8307 47.0047L15.3809 49.3357L12.5915 49.3274C10.7438 49.3294 8.93148 48.8066 7.36912 47.8213C8.32114 46.6339 10.021 44.8007 11.4 44.405C13.9893 43.6655 16.4932 39.3617 16.7701 38.8743V38.8722C16.9972 38.4723 16.8576 37.964 16.4576 37.7369C16.0556 37.5099 15.5473 37.6494 15.3203 38.0494C14.4016 39.6659 12.4018 42.3844 10.9415 42.801C8.97924 43.3614 6.98359 45.6195 6.03579 46.8152C3.95477 44.9758 2.75281 42.3386 2.7278 39.5599L2.66531 34.4604C2.64656 33.2543 3.12151 32.094 3.97974 31.2462C4.85256 30.3734 6.0462 29.8963 7.27941 29.9254C8.69383 29.9421 10.1062 29.8359 11.5019 29.6047C15.5098 29.0047 19.5886 30.09 22.7653 32.6064C22.7841 32.6231 22.8049 32.6356 22.8237 32.6502C22.8424 32.6648 22.8633 32.6814 22.8862 32.696C22.9091 32.7106 22.9403 32.7231 22.9632 32.7356C22.9882 32.7481 23.0091 32.7585 23.032 32.7668C23.0549 32.7752 23.082 32.7814 23.1091 32.7877C23.1361 32.796 23.1632 32.8022 23.1903 32.8085C23.2111 32.8127 23.2341 32.8127 23.2549 32.8147L23.257 32.8127C23.2882 32.8168 23.3215 32.8189 23.3549 32.8168C23.3715 32.8168 23.3903 32.8127 23.409 32.8106L23.4069 32.8127C23.4444 32.8085 23.4819 32.8043 23.5173 32.796C23.5319 32.7918 23.5444 32.7877 23.559 32.7835C23.5923 32.7752 23.6257 32.7648 23.6569 32.7523C29.427 30.2546 33.2453 31.5253 35.6744 36.7456C35.6786 36.756 35.6869 36.7623 35.6911 36.7706C35.7202 36.8289 35.7556 36.8852 35.7973 36.9352L35.816 36.9602L35.8181 36.9581C35.8619 37.0039 35.9119 37.0456 35.964 37.081C35.9806 37.0935 35.9994 37.1039 36.0181 37.1143C36.066 37.1414 36.1181 37.1643 36.1702 37.1831C36.1827 37.1872 36.1952 37.1935 36.2077 37.1977H36.2098C36.266 37.2122 36.3243 37.2227 36.3847 37.2268H36.4285C36.4452 37.2268 36.4618 37.2227 36.4785 37.2227V37.2206C36.5181 37.2185 36.5576 37.2143 36.5972 37.2081C36.6139 37.2039 36.6326 37.1977 36.6514 37.1935L36.6493 37.1914C36.6889 37.1831 36.7264 37.1706 36.7618 37.1539C36.768 37.1518 36.7743 37.1497 36.7805 37.1477C36.7972 37.1393 36.8097 37.1289 36.8264 37.1206C36.8534 37.106 36.8805 37.0914 36.9034 37.0747C36.9264 37.0581 36.9451 37.0435 36.9639 37.0268C36.9826 37.0102 37.0055 36.9914 37.0243 36.9727L37.0222 36.9768C37.0409 36.9581 37.0576 36.9394 37.0743 36.9185C37.0909 36.8977 37.1076 36.8748 37.1222 36.8519C37.1368 36.831 37.1472 36.8102 37.1597 36.7894C37.1742 36.7644 37.1867 36.7373 37.1972 36.7102C37.2055 36.6894 37.2138 36.6665 37.2201 36.6456C37.2263 36.6248 37.2367 36.5894 37.243 36.5602C37.2492 36.5311 37.2513 36.5102 37.2534 36.4852C37.2534 36.4706 37.2597 36.4561 37.2597 36.4394L37.9096 24.6198H37.9117C37.9179 24.4844 37.893 24.349 37.8367 24.2261L37.293 23.047H37.2909C38.8491 21.8596 40.1011 20.3202 40.9448 18.5537C41.501 19.4161 42.1613 20.3931 42.8446 21.4035C44.8381 24.3531 47.3191 28.0236 47.8295 29.8671C48.1337 30.9754 48.5482 32.4481 48.9565 33.898C49.5669 36.0707 50.3251 38.7642 50.4085 39.16V39.1621C50.4293 39.2996 50.471 39.435 50.5314 39.562C50.7334 40.0557 51.3437 41.5614 50.7167 42.8905ZM32.75 36.5055C33.0166 36.8805 32.9312 37.4012 32.5583 37.67C32.1834 37.9366 31.6626 37.8512 31.3959 37.4783C29.5836 34.9535 25.1965 36.5555 25.1528 36.5722L25.1507 36.5701C24.7195 36.7326 24.2404 36.5138 24.08 36.0826C23.9196 35.6514 24.1383 35.1702 24.5695 35.0098C24.7966 34.9244 30.202 32.9579 32.75 36.5055ZM38.7996 13.2933C38.8037 16.1097 37.4768 18.7637 35.2228 20.451C32.9689 22.1405 30.0504 22.6675 27.3484 21.8738C24.6466 21.0781 22.476 19.0553 21.4946 16.4162C20.5135 13.7769 20.8342 10.8274 22.3612 8.46075C23.8881 6.09432 26.4399 4.58615 29.2501 4.39033C32.0602 4.1966 34.7973 5.33813 36.6371 7.47333C36.9371 7.82121 36.8975 8.34823 36.5496 8.6482C36.2017 8.94817 35.6747 8.91067 35.3747 8.56071C32.9562 5.76515 28.817 5.24648 25.7842 7.36083C22.7512 9.47518 21.8076 13.5394 23.5948 16.7743C25.3822 20.0094 29.3255 21.3738 32.7294 19.9323C36.1332 18.4908 37.8976 14.7099 36.8186 11.1748C36.754 10.9623 36.7749 10.7353 36.879 10.5394C36.9832 10.3436 37.1602 10.1978 37.3706 10.1332C37.8102 9.99783 38.2768 10.2457 38.4122 10.6853C38.6705 11.531 38.8016 12.4101 38.7996 13.2933ZM26.6802 13.2933C26.6802 14.587 27.4592 15.7535 28.655 16.2493C29.8507 16.7451 31.2276 16.4701 32.1421 15.5556C33.0566 14.6412 33.3316 13.2642 32.8358 12.0684C32.34 10.8727 31.1735 10.0937 29.8799 10.0937C29.0299 10.0937 28.2175 10.4311 27.6176 11.0311C27.0156 11.631 26.6802 12.4434 26.6802 13.2933ZM31.4089 13.2933C31.4089 13.9121 31.036 14.4703 30.4632 14.7078C29.8903 14.9452 29.232 14.814 28.7946 14.3765C28.3571 13.937 28.2259 13.2787 28.4634 12.708C28.7008 12.1351 29.2591 11.7622 29.8778 11.7622C30.7214 11.7622 31.4068 12.4476 31.4089 13.2933Z" fill="url(#paint0_linear_177_3540)"/>
<path d="M38.8016 13.2913L38.7996 13.2933M38.7996 13.2933C38.8037 16.1097 37.4768 18.7637 35.2228 20.451C32.9689 22.1405 30.0504 22.6675 27.3484 21.8738C24.6466 21.0781 22.476 19.0553 21.4946 16.4162C20.5135 13.7769 20.8342 10.8275 22.3612 8.46075C23.8881 6.09432 26.4399 4.58615 29.2501 4.39033C32.0602 4.1966 34.7973 5.33813 36.6371 7.47333C36.9371 7.82121 36.8975 8.34823 36.5496 8.6482C36.2017 8.94817 35.6747 8.91067 35.3747 8.56071C32.9562 5.76515 28.817 5.24648 25.7842 7.36083C22.7512 9.47518 21.8076 13.5394 23.5948 16.7743C25.3822 20.0094 29.3255 21.3738 32.7294 19.9323C36.1332 18.4908 37.8976 14.7099 36.8186 11.1748C36.754 10.9623 36.7749 10.7353 36.879 10.5394C36.9832 10.3436 37.1602 10.1978 37.3706 10.1332C37.8102 9.99783 38.2768 10.2457 38.4122 10.6853C38.6705 11.531 38.8016 12.4101 38.7996 13.2933ZM26.6802 13.2913V13.2933M26.6802 13.2933C26.6802 14.587 27.4592 15.7535 28.655 16.2493C29.8507 16.7451 31.2276 16.4701 32.1421 15.5556C33.0566 14.6412 33.3316 13.2642 32.8358 12.0684C32.34 10.8727 31.1735 10.0937 29.8799 10.0937C29.0299 10.0937 28.2175 10.4311 27.6176 11.0311C27.0156 11.631 26.6802 12.4434 26.6802 13.2933ZM31.4089 13.2913V13.2933M31.4089 13.2933C31.4089 13.9121 31.036 14.4703 30.4632 14.7078C29.8903 14.9452 29.232 14.814 28.7946 14.3765C28.3571 13.937 28.2259 13.2787 28.4634 12.708C28.7008 12.1351 29.2591 11.7622 29.8778 11.7622C30.7214 11.7622 31.4068 12.4476 31.4089 13.2933ZM52.0745 38.9324L52.0474 38.8637C51.9786 38.5242 51.7016 37.5076 50.56 33.4456C50.1538 31.9978 49.7413 30.5271 49.4351 29.423C48.8539 27.3149 46.3958 23.678 44.2252 20.4698C43.2378 19.0095 42.3046 17.6263 41.6817 16.5827H41.6797C42.7087 12.908 41.9692 8.96261 39.6799 5.91065C37.3905 2.85676 33.8095 1.04238 29.9933 1.00073C26.1771 0.95907 22.5589 2.69433 20.2028 5.69611C17.8468 8.69789 17.0219 12.6266 17.9697 16.3223C18.9175 20.0198 21.5298 23.0656 25.04 24.5652C28.55 26.0629 32.5582 25.8421 35.8826 23.9694L36.2347 24.7318L35.7493 33.5662C32.9413 29.7061 28.8209 28.8499 23.4652 31.0227C19.9739 28.3896 15.5641 27.2814 11.2413 27.9563C9.94354 28.1688 8.62703 28.2709 7.31047 28.2584C5.6252 28.2188 3.99832 28.8708 2.80676 30.0644C1.62773 31.2289 0.975683 32.8246 1.00069 34.4806L1.06319 39.5801C1.09652 43.1652 2.80259 46.5314 5.67729 48.6752C5.68354 48.6794 5.68771 48.6856 5.69396 48.6898C5.70021 48.694 5.70437 48.694 5.70854 48.6981C7.6917 50.1897 10.1081 50.9958 12.5889 50.9917L15.8428 51H15.8407C16.1303 51 16.3969 50.8521 16.549 50.6063L18.2467 47.8836C18.605 47.3087 19.3133 47.0608 19.9528 47.2858C32.4971 51.6166 41.3112 48.8293 47.1416 46.9837C47.4853 46.8775 47.8206 46.7712 48.1456 46.6671C50.1912 46.0296 51.5619 44.9985 52.2223 43.5986C53.1638 41.6113 52.3432 39.5949 52.0745 38.9324ZM19.2862 13.2934C19.2862 10.4853 20.4028 7.79207 22.388 5.80453C24.3753 3.81929 27.0688 2.70484 29.8769 2.70484C32.687 2.70484 35.3803 3.82142 37.3657 5.80869C39.351 7.79393 40.4675 10.4874 40.4654 13.2975C40.4654 16.1056 39.351 18.7989 37.3636 20.7843C35.3784 22.7695 32.685 23.886 29.8769 23.886C27.0668 23.884 24.3756 22.7653 22.3902 20.7801C20.405 18.7928 19.2883 16.1014 19.2862 13.2934ZM50.7167 42.8905C50.2626 43.8508 49.2314 44.5861 47.6504 45.0778C47.3233 45.1798 46.9858 45.2861 46.638 45.3986C41.0156 47.1775 32.5183 49.8627 20.495 45.7131V45.711C19.1201 45.2298 17.5973 45.7673 16.8307 47.0047L15.3809 49.3357L12.5915 49.3273C10.7438 49.3294 8.93148 48.8066 7.36912 47.8213C8.32114 46.6339 10.021 44.8007 11.4 44.405C13.9893 43.6655 16.4932 39.3617 16.7701 38.8743V38.8722C16.9972 38.4723 16.8576 37.964 16.4576 37.7369C16.0556 37.5099 15.5473 37.6494 15.3203 38.0494C14.4016 39.6659 12.4018 42.3844 10.9415 42.801C8.97924 43.3614 6.98359 45.6195 6.03579 46.8152C3.95477 44.9758 2.75281 42.3386 2.7278 39.5599L2.66531 34.4604C2.64656 33.2543 3.12151 32.094 3.97974 31.2462C4.85256 30.3734 6.0462 29.8963 7.27941 29.9254C8.69383 29.9421 10.1062 29.8359 11.5019 29.6046C15.5098 29.0047 19.5886 30.09 22.7653 32.6064C22.7841 32.6231 22.8049 32.6356 22.8237 32.6502C22.8424 32.6648 22.8633 32.6814 22.8862 32.696C22.9091 32.7106 22.9403 32.7231 22.9632 32.7356C22.9882 32.7481 23.0091 32.7585 23.032 32.7668C23.0549 32.7752 23.082 32.7814 23.1091 32.7877C23.1361 32.796 23.1632 32.8022 23.1903 32.8085C23.2111 32.8127 23.2341 32.8127 23.2549 32.8147L23.257 32.8127C23.2882 32.8168 23.3215 32.8189 23.3549 32.8168C23.3715 32.8168 23.3903 32.8127 23.409 32.8106L23.4069 32.8127C23.4444 32.8085 23.4819 32.8043 23.5173 32.796C23.5319 32.7918 23.5444 32.7877 23.559 32.7835C23.5923 32.7752 23.6257 32.7648 23.6569 32.7523C29.427 30.2546 33.2453 31.5253 35.6744 36.7456C35.6786 36.756 35.6869 36.7623 35.6911 36.7706C35.7202 36.8289 35.7556 36.8852 35.7973 36.9352L35.816 36.9602L35.8181 36.9581C35.8619 37.0039 35.9119 37.0456 35.964 37.081C35.9806 37.0935 35.9994 37.1039 36.0181 37.1143C36.066 37.1414 36.1181 37.1643 36.1702 37.1831C36.1827 37.1872 36.1952 37.1935 36.2077 37.1977H36.2098C36.266 37.2122 36.3243 37.2227 36.3847 37.2268H36.4285C36.4452 37.2268 36.4618 37.2227 36.4785 37.2227V37.2206C36.5181 37.2185 36.5576 37.2143 36.5972 37.2081C36.6139 37.2039 36.6326 37.1977 36.6514 37.1935L36.6493 37.1914C36.6889 37.1831 36.7264 37.1706 36.7618 37.1539C36.768 37.1518 36.7743 37.1497 36.7805 37.1477C36.7972 37.1393 36.8097 37.1289 36.8264 37.1206C36.8534 37.106 36.8805 37.0914 36.9034 37.0747C36.9264 37.0581 36.9451 37.0435 36.9639 37.0268C36.9826 37.0102 37.0055 36.9914 37.0243 36.9727L37.0222 36.9768C37.0409 36.9581 37.0576 36.9393 37.0743 36.9185C37.0909 36.8977 37.1076 36.8748 37.1222 36.8519C37.1368 36.831 37.1472 36.8102 37.1597 36.7894C37.1742 36.7644 37.1867 36.7373 37.1972 36.7102C37.2055 36.6894 37.2138 36.6665 37.2201 36.6456C37.2263 36.6248 37.2367 36.5894 37.243 36.5602C37.2492 36.531 37.2513 36.5102 37.2534 36.4852C37.2534 36.4706 37.2597 36.4561 37.2597 36.4394L37.9096 24.6198H37.9117C37.9179 24.4844 37.893 24.349 37.8367 24.2261L37.293 23.047H37.2909C38.8491 21.8596 40.1011 20.3202 40.9448 18.5537C41.501 19.4161 42.1613 20.3931 42.8446 21.4035C44.8381 24.3531 47.3191 28.0236 47.8295 29.8672C48.1337 30.9754 48.5482 32.4481 48.9565 33.898C49.5669 36.0707 50.3251 38.7642 50.4085 39.16V39.1621C50.4293 39.2996 50.471 39.435 50.5314 39.562C50.7334 40.0557 51.3437 41.5614 50.7167 42.8905ZM32.75 36.5055C33.0166 36.8805 32.9312 37.4012 32.5583 37.67C32.1834 37.9366 31.6626 37.8512 31.3959 37.4783C29.5836 34.9535 25.1965 36.5555 25.1528 36.5722L25.1507 36.5701C24.7195 36.7326 24.2404 36.5138 24.08 36.0826C23.9196 35.6514 24.1383 35.1702 24.5696 35.0098C24.7966 34.9244 30.202 32.9579 32.75 36.5055Z" stroke="url(#paint1_linear_177_3540)"/>
<defs>
<linearGradient id="paint0_linear_177_3540" x1="26.8313" y1="1" x2="26.8313" y2="51" gradientUnits="userSpaceOnUse">
<stop stop-color="#D7FD44"/>
<stop offset="1" stop-color="#5C6B20"/>
</linearGradient>
<linearGradient id="paint1_linear_177_3540" x1="26.8313" y1="1" x2="26.8313" y2="51" gradientUnits="userSpaceOnUse">
<stop stop-color="#D7FD44"/>
<stop offset="1" stop-color="#5C6B20"/>
</linearGradient>
</defs>
</svg>
