<svg width="87" height="48" viewBox="0 0 87 48" fill="none" xmlns="http://www.w3.org/2000/svg">
<path d="M3.20816 3.6H0.448156V1.2H8.60816V3.6H5.84816V18H3.20816V3.6ZM9.88634 1.2H13.7983C15.1583 1.2 16.1503 1.52 16.7743 2.16C17.3983 2.784 17.7103 3.752 17.7103 5.064V6.096C17.7103 7.84 17.1343 8.944 15.9823 9.408V9.456C16.6223 9.648 17.0703 10.04 17.3263 10.632C17.5983 11.224 17.7343 12.016 17.7343 13.008V15.96C17.7343 16.44 17.7503 16.832 17.7823 17.136C17.8143 17.424 17.8943 17.712 18.0223 18H15.3343C15.2383 17.728 15.1743 17.472 15.1423 17.232C15.1103 16.992 15.0943 16.56 15.0943 15.936V12.864C15.0943 12.096 14.9663 11.56 14.7103 11.256C14.4703 10.952 14.0463 10.8 13.4383 10.8H12.5263V18H9.88634V1.2ZM13.4863 8.4C14.0143 8.4 14.4063 8.264 14.6623 7.992C14.9343 7.72 15.0703 7.264 15.0703 6.624V5.328C15.0703 4.72 14.9583 4.28 14.7343 4.008C14.5263 3.736 14.1903 3.6 13.7263 3.6H12.5263V8.4H13.4863ZM21.606 1.2H25.182L27.918 18H25.278L24.798 14.664V14.712H21.798L21.318 18H18.87L21.606 1.2ZM24.486 12.432L23.31 4.128H23.262L22.11 12.432H24.486ZM29.1988 1.2H32.5108L35.0788 11.256H35.1268V1.2H37.4788V18H34.7668L31.5988 5.736H31.5508V18H29.1988V1.2ZM42.873 18.24C41.593 18.24 40.625 17.88 39.969 17.16C39.313 16.424 38.985 15.376 38.985 14.016V13.056H41.481V14.208C41.481 15.296 41.937 15.84 42.849 15.84C43.297 15.84 43.633 15.712 43.857 15.456C44.097 15.184 44.217 14.752 44.217 14.16C44.217 13.456 44.057 12.84 43.737 12.312C43.417 11.768 42.825 11.12 41.961 10.368C40.873 9.408 40.113 8.544 39.681 7.776C39.249 6.992 39.033 6.112 39.033 5.136C39.033 3.808 39.369 2.784 40.041 2.064C40.713 1.328 41.689 0.959999 42.969 0.959999C44.233 0.959999 45.185 1.328 45.825 2.064C46.481 2.784 46.809 3.824 46.809 5.184V5.88H44.313V5.016C44.313 4.44 44.201 4.024 43.977 3.768C43.753 3.496 43.425 3.36 42.993 3.36C42.113 3.36 41.673 3.896 41.673 4.968C41.673 5.576 41.833 6.144 42.153 6.672C42.489 7.2 43.089 7.84 43.953 8.592C45.057 9.552 45.817 10.424 46.233 11.208C46.649 11.992 46.857 12.912 46.857 13.968C46.857 15.344 46.513 16.4 45.825 17.136C45.153 17.872 44.169 18.24 42.873 18.24ZM48.3707 1.2H55.3547V3.6H51.0107V8.28H54.4187V10.68H51.0107V18H48.3707V1.2ZM60.4367 18.24C59.1407 18.24 58.1487 17.872 57.4607 17.136C56.7727 16.4 56.4287 15.36 56.4287 14.016V5.184C56.4287 3.84 56.7727 2.8 57.4607 2.064C58.1487 1.328 59.1407 0.959999 60.4367 0.959999C61.7327 0.959999 62.7247 1.328 63.4127 2.064C64.1007 2.8 64.4447 3.84 64.4447 5.184V14.016C64.4447 15.36 64.1007 16.4 63.4127 17.136C62.7247 17.872 61.7327 18.24 60.4367 18.24ZM60.4367 15.84C61.3487 15.84 61.8047 15.288 61.8047 14.184V5.016C61.8047 3.912 61.3487 3.36 60.4367 3.36C59.5247 3.36 59.0687 3.912 59.0687 5.016V14.184C59.0687 15.288 59.5247 15.84 60.4367 15.84ZM66.2301 1.2H70.1421C71.5021 1.2 72.4941 1.52 73.1181 2.16C73.7421 2.784 74.0541 3.752 74.0541 5.064V6.096C74.0541 7.84 73.4781 8.944 72.3261 9.408V9.456C72.9661 9.648 73.4141 10.04 73.6701 10.632C73.9421 11.224 74.0781 12.016 74.0781 13.008V15.96C74.0781 16.44 74.0941 16.832 74.1261 17.136C74.1581 17.424 74.2381 17.712 74.3661 18H71.6781C71.5821 17.728 71.5181 17.472 71.4861 17.232C71.4541 16.992 71.4381 16.56 71.4381 15.936V12.864C71.4381 12.096 71.3101 11.56 71.0541 11.256C70.8141 10.952 70.3901 10.8 69.7821 10.8H68.8701V18H66.2301V1.2ZM69.8301 8.4C70.3581 8.4 70.7501 8.264 71.0061 7.992C71.2781 7.72 71.4141 7.264 71.4141 6.624V5.328C71.4141 4.72 71.3021 4.28 71.0781 4.008C70.8701 3.736 70.5341 3.6 70.0701 3.6H68.8701V8.4H69.8301ZM75.9098 1.2H79.6778L81.3578 13.224H81.4058L83.0858 1.2H86.8538V18H84.3578V5.28H84.3098L82.3898 18H80.1818L78.2618 5.28H78.2138V18H75.9098V1.2ZM4.90297 30.2H7.44697L8.62297 43.112H8.67097L9.91897 30.2H12.799L14.047 43.112H14.095L15.271 30.2H17.551L15.847 47H12.559L11.359 35.672H11.311L10.111 47H6.60697L4.90297 30.2ZM18.8863 30.2H21.5263V47H18.8863V30.2ZM25.5675 32.6H22.8075V30.2H30.9675V32.6H28.2075V47H25.5675V32.6ZM32.2457 30.2H34.8857V37.04H37.7177V30.2H40.3577V47H37.7177V39.44H34.8857V47H32.2457V30.2ZM48.2316 32.6H45.4716V30.2H53.6316V32.6H50.8716V47H48.2316V32.6ZM58.7498 47.24C57.4698 47.24 56.4938 46.88 55.8218 46.16C55.1498 45.424 54.8138 44.376 54.8138 43.016V30.2H57.4538V43.208C57.4538 43.784 57.5658 44.2 57.7898 44.456C58.0298 44.712 58.3658 44.84 58.7978 44.84C59.2298 44.84 59.5578 44.712 59.7818 44.456C60.0218 44.2 60.1418 43.784 60.1418 43.208V30.2H62.6858V43.016C62.6858 44.376 62.3498 45.424 61.6778 46.16C61.0058 46.88 60.0298 47.24 58.7498 47.24ZM64.566 30.2H67.878L70.446 40.256H70.494V30.2H72.846V47H70.134L66.966 34.736H66.918V47H64.566V30.2ZM76.8482 30.2H80.4242L83.1602 47H80.5202L80.0402 43.664V43.712H77.0402L76.5602 47H74.1122L76.8482 30.2ZM79.7282 41.432L78.5522 33.128H78.5042L77.3522 41.432H79.7282Z" fill="url(#paint0_linear_177_3539)"/>
<defs>
<linearGradient id="paint0_linear_177_3539" x1="44" y1="-4" x2="44" y2="54" gradientUnits="userSpaceOnUse">
<stop stop-color="#D7FD44"/>
<stop offset="1" stop-color="#5C6B20"/>
</linearGradient>
</defs>
</svg>
